<svg width="23" height="20" viewBox="0 0 23 20" fill="none" xmlns="http://www.w3.org/2000/svg">
<path opacity="0.2" d="M14.3748 8.70833L14.3748 -7.03025e-07L22.4165 0L22.4165 6.875C22.4165 10.5972 21.9721 13.2917 21.0832 14.9583C19.9165 17.1806 18.0693 18.8611 15.5415 20L13.7082 17.0833C15.2359 16.4444 16.3609 15.4861 17.0832 14.2083C17.8054 12.9583 18.2082 11.125 18.2915 8.70833L14.3748 8.70833ZM1.45817 8.70833L1.45817 -1.83224e-06L9.49984 -1.12921e-06L9.49984 6.875C9.49984 10.5972 9.05539 13.2917 8.16651 14.9583C6.99984 17.1806 5.15262 18.8611 2.62484 20L0.791506 17.0833C2.31928 16.4444 3.44428 15.4861 4.16651 14.2083C4.88873 12.9583 5.29151 11.125 5.37484 8.70833L1.45817 8.70833Z" fill="white"/>
</svg>
