<svg width="20" height="20" viewBox="0 0 20 20" fill="none" xmlns="http://www.w3.org/2000/svg">
<g clip-path="url(#clip0)">
<path d="M10 3.18918C10.3236 3.18918 10.5859 2.92684 10.5859 2.60324V0.585938C10.5859 0.262344 10.3236 0 10 0C9.67641 0 9.41406 0.262344 9.41406 0.585938V2.60324C9.41406 2.92684 9.67641 3.18918 10 3.18918Z" fill="#FF6B09"/>
<path d="M19.4141 9.41406H17.3968C17.0732 9.41406 16.8109 9.67641 16.8109 10C16.8109 10.3236 17.0732 10.5859 17.3968 10.5859H19.4141C19.7377 10.5859 20 10.3236 20 10C20 9.67641 19.7377 9.41406 19.4141 9.41406Z" fill="#FF6B09"/>
<path d="M3.18918 10C3.18918 9.67641 2.92684 9.41406 2.60324 9.41406H0.585938C0.262344 9.41406 0 9.67641 0 10C0 10.3236 0.262344 10.5859 0.585938 10.5859H2.60324C2.92684 10.5859 3.18918 10.3236 3.18918 10Z" fill="#FF6B09"/>
<path d="M15.2303 5.35554C15.3803 5.35554 15.5302 5.29832 15.6446 5.1839L17.071 3.75746C17.2999 3.52867 17.2999 3.15765 17.071 2.92882C16.8423 2.70004 16.4712 2.70004 16.2424 2.92882L14.816 4.35527C14.5871 4.58406 14.5871 4.95507 14.816 5.1839C14.9304 5.29836 15.0804 5.35554 15.2303 5.35554Z" fill="#FF6B09"/>
<path d="M15.6446 14.8159C15.4158 14.5871 15.0448 14.5871 14.816 14.8159C14.5871 15.0447 14.5871 15.4157 14.816 15.6445L16.2424 17.071C16.3569 17.1854 16.5068 17.2426 16.6567 17.2426C16.8067 17.2426 16.9567 17.1854 17.071 17.071C17.2999 16.8422 17.2999 16.4712 17.071 16.2424L15.6446 14.8159Z" fill="#FF6B09"/>
<path d="M4.35539 14.8158L2.92895 16.2423C2.70012 16.4712 2.70012 16.8421 2.92895 17.071C3.04336 17.1854 3.19332 17.2426 3.34324 17.2426C3.49317 17.2426 3.64317 17.1854 3.75754 17.071L5.18399 15.6445C5.41282 15.4157 5.41282 15.0447 5.18399 14.8158C4.95524 14.5871 4.58418 14.5871 4.35539 14.8158Z" fill="#FF6B09"/>
<path d="M4.35543 5.1839C4.46985 5.29832 4.61981 5.35554 4.76973 5.35554C4.91965 5.35554 5.06965 5.29832 5.18403 5.1839C5.41286 4.95507 5.41286 4.5841 5.18403 4.35527L3.75758 2.92882C3.52879 2.70004 3.15777 2.70004 2.92895 2.92882C2.70012 3.15765 2.70012 3.52863 2.92895 3.75746L4.35543 5.1839Z" fill="#FF6B09"/>
<path d="M12.6138 3.71079C12.6874 3.74134 12.7635 3.75579 12.8385 3.75579C13.0681 3.75579 13.2861 3.61989 13.3798 3.39458L14.1539 1.53177C14.2781 1.23294 14.1365 0.890008 13.8377 0.765828C13.5389 0.641687 13.196 0.783172 13.0718 1.08208L12.2976 2.94489C12.1735 3.24368 12.315 3.58657 12.6138 3.71079Z" fill="#FF6B09"/>
<path d="M18.9181 13.0717L17.0553 12.2976C16.7564 12.1734 16.4135 12.3149 16.2893 12.6138C16.1652 12.9126 16.3067 13.2555 16.6055 13.3797L18.4684 14.1539C18.5419 14.1844 18.618 14.1989 18.693 14.1989C18.9227 14.1989 19.1407 14.063 19.2343 13.8377C19.3584 13.5388 19.2169 13.1959 18.9181 13.0717Z" fill="#FF6B09"/>
<path d="M7.3863 16.2893C7.08743 16.1652 6.74454 16.3066 6.62036 16.6055L5.84622 18.4683C5.72204 18.7671 5.86361 19.1101 6.16243 19.2343C6.23599 19.2648 6.31212 19.2793 6.38708 19.2793C6.61673 19.2793 6.83474 19.1434 6.92837 18.918L7.70251 17.0552C7.82665 16.7564 7.68509 16.4135 7.3863 16.2893Z" fill="#FF6B09"/>
<path d="M1.08187 6.92817L2.94468 7.70232C3.01823 7.73286 3.09437 7.74732 3.16933 7.74732C3.39898 7.74732 3.61698 7.61142 3.71062 7.3861C3.8348 7.08728 3.69323 6.74435 3.39441 6.62017L1.53159 5.84602C1.23277 5.72188 0.889836 5.86341 0.765657 6.16224C0.641477 6.46106 0.783039 6.80399 1.08187 6.92817Z" fill="#FF6B09"/>
<path d="M16.2955 7.40086C16.3888 7.62684 16.6071 7.76336 16.8373 7.76336C16.9118 7.76336 16.9875 7.74907 17.0607 7.71887L18.9253 6.94906C19.2244 6.82555 19.3668 6.48297 19.2433 6.18387C19.1198 5.88473 18.7771 5.74238 18.4781 5.86582L16.6135 6.63563C16.3143 6.75918 16.172 7.10176 16.2955 7.40086Z" fill="#FF6B09"/>
<path d="M13.3642 16.6136C13.2407 16.3144 12.898 16.1721 12.599 16.2955C12.2999 16.419 12.1575 16.7616 12.2809 17.0607L13.0507 18.9254C13.1441 19.1514 13.3624 19.2879 13.5926 19.2879C13.6671 19.2879 13.7428 19.2736 13.8159 19.2434C14.115 19.1199 14.2575 18.7773 14.134 18.4782L13.3642 16.6136Z" fill="#FF6B09"/>
<path d="M3.70462 12.5989C3.5811 12.2998 3.23848 12.1574 2.93942 12.2809L1.07481 13.0507C0.775672 13.1742 0.633289 13.5168 0.756766 13.8159C0.850086 14.0419 1.06845 14.1784 1.2986 14.1784C1.37309 14.1784 1.44884 14.1641 1.52196 14.1339L3.38657 13.3641C3.68575 13.2406 3.82809 12.898 3.70462 12.5989Z" fill="#FF6B09"/>
<path d="M6.63576 3.38663C6.72908 3.61261 6.94744 3.74913 7.1776 3.74913C7.25209 3.74913 7.32783 3.73484 7.40096 3.70464C7.7001 3.58112 7.84248 3.23855 7.719 2.93945L6.9492 1.07484C6.82568 0.775734 6.48303 0.63339 6.184 0.756789C5.88486 0.880304 5.74248 1.22288 5.86596 1.52198L6.63576 3.38663Z" fill="#FF6B09"/>
<path d="M10.7185 17.8639L10.5859 17.9965V15.398C13.3053 15.1049 15.4297 12.796 15.4297 10.0001C15.4297 7.00611 12.9939 4.57037 10 4.57037C7.00605 4.57037 4.57031 7.00611 4.57031 10.0001C4.57031 12.796 6.69469 15.1049 9.41406 15.398V18.0309L9.23332 17.8554C9.00125 17.6299 8.63027 17.6353 8.40477 17.8674C8.1793 18.0995 8.18465 18.4704 8.41676 18.6959L9.58871 19.8344C9.7025 19.9449 9.84977 20 9.99695 20C10.147 20 10.297 19.9427 10.4113 19.8284L11.5471 18.6926C11.7759 18.4638 11.7759 18.0928 11.5471 17.864C11.3183 17.6351 10.9473 17.6351 10.7185 17.8639ZM5.74219 10C5.74219 7.65225 7.65223 5.74221 10 5.74221C12.3478 5.74221 14.2578 7.65225 14.2578 10C14.2578 12.149 12.6574 13.9309 10.5859 14.2173V12.8264C10.5859 12.5028 10.3236 12.2405 10 12.2405C9.67641 12.2405 9.41406 12.5028 9.41406 12.8264V14.2173C7.34258 13.9309 5.74219 12.149 5.74219 10Z" fill="#FF6B09"/>
</g>
<defs>
<clipPath id="clip0">
<rect width="20" height="20" fill="white"/>
</clipPath>
</defs>
</svg>
