<svg width="50" height="46" viewBox="0 0 50 46" fill="none" xmlns="http://www.w3.org/2000/svg">
<path opacity="0.2" d="M31.04 19.8999L31.04 -1.60652e-06L49.4165 0L49.4165 15.7104C49.4165 24.2163 48.4009 30.3735 46.3696 34.1821C43.7036 39.2603 39.4824 43.1006 33.7061 45.7031L29.5166 39.0381C33.0078 37.5781 35.5786 35.3882 37.229 32.4683C38.8794 29.6118 39.7998 25.4224 39.9902 19.8999L31.04 19.8999ZM1.52344 19.8999L1.52344 -4.18694e-06L19.8999 -2.58042e-06L19.8999 15.7104C19.8999 24.2163 18.8843 30.3735 16.853 34.1821C14.187 39.2603 9.96582 43.1006 4.18945 45.7031L5.82676e-07 39.0381C3.49121 37.5781 6.06201 35.3882 7.7124 32.4683C9.36279 29.6118 10.2832 25.4224 10.4736 19.8999L1.52344 19.8999Z" fill="white"/>
</svg>
