<svg aria-hidden="true" style="position:absolute;width:0;height:0" xmlns="http://www.w3.org/2000/svg" overflow="hidden"><defs><symbol id="icon-cloudy" viewBox="0 0 32 32"><path fill="var(--color1, #eee1dc)" d="M26.888 20.96c-3.317 0-11.015-2.423-14.428-5.445-1.259-1.114-1.897-2.262-1.897-3.411a4.63 4.63 0 015.908-4.444 4.62 4.62 0 014.374-3.114c1.671 0 3.199.909 4.013 2.325a4.63 4.63 0 014.933 5.494 4.653 4.653 0 012.21 3.944 4.37 4.37 0 01-1.377 3.194c-.81.77-1.923 1.276-3.134 1.424-.179.022-.38.033-.601.033z"/><path fill="var(--color2, #e0d2cd)" d="M29.79 12.366a4.63 4.63 0 00-4.933-5.494 4.647 4.647 0 00-3.576-2.304v15.323c2.204.673 4.264 1.07 5.607 1.07.22 0 .421-.011.601-.033 1.211-.148 2.324-.654 3.134-1.424A4.373 4.373 0 0032 16.31a4.654 4.654 0 00-2.21-3.944z"/><path fill="var(--color3, #fff4f4)" d="M13.321 27.454a4.7 4.7 0 01-4.017-2.272 3.927 3.927 0 01-2.042.576 3.933 3.933 0 01-3.746-2.77 3.919 3.919 0 01.011-7.795A3.907 3.907 0 014.6 13.505a3.903 3.903 0 012.662-1.043c.72 0 1.421.202 2.026.567a4.697 4.697 0 014.033-2.3 4.697 4.697 0 014.033 2.3 3.926 3.926 0 012.026-.567c.99 0 1.936.37 2.662 1.043a3.91 3.91 0 011.073 1.689 3.918 3.918 0 01.011 7.795 3.932 3.932 0 01-3.746 2.77 3.93 3.93 0 01-2.042-.576 4.7 4.7 0 01-4.017 2.272z"/><path fill="var(--color4, #f6efea)" d="M25.317 16.155a3.922 3.922 0 00-2.203-.961 3.91 3.91 0 00-1.073-1.689 3.903 3.903 0 00-2.662-1.043c-.72 0-1.421.202-2.026.567a4.697 4.697 0 00-4.033-2.3v16.725a4.7 4.7 0 004.017-2.272 3.927 3.927 0 002.042.576 3.933 3.933 0 003.746-2.77 3.92 3.92 0 002.192-6.834z"/></symbol><symbol id="icon-sun" viewBox="0 0 32 32"><path fill="var(--color5, #fdbf00)" d="M16 24.688c-4.79 0-8.688-3.897-8.688-8.688S11.209 7.312 16 7.312c4.79 0 8.688 3.897 8.688 8.688S20.791 24.688 16 24.688zM16 5.103a.938.938 0 01-.938-.938V.937a.938.938 0 011.876 0v3.228c0 .518-.42.938-.938.938z"/><path fill="var(--color6, #ff8856)" d="M31.063 16.938h-3.228a.938.938 0 010-1.876h3.228a.938.938 0 010 1.876z"/><path fill="var(--color5, #fdbf00)" d="M16 32a.938.938 0 01-.938-.938v-3.228a.938.938 0 011.876 0v3.228c0 .518-.42.938-.938.938zM4.165 16.938H.937a.938.938 0 010-1.876h3.228a.938.938 0 010 1.876z"/><path fill="var(--color6, #ff8856)" d="M24.369 8.569a.938.938 0 01-.663-1.601l2.282-2.282a.938.938 0 011.326 1.326l-2.282 2.282a.935.935 0 01-.663.275zM26.651 27.588a.935.935 0 01-.663-.275l-2.282-2.282a.938.938 0 011.326-1.326l2.282 2.282a.938.938 0 01-.663 1.601z"/><path fill="var(--color5, #fdbf00)" d="M5.349 27.588a.938.938 0 01-.663-1.601l2.282-2.282a.938.938 0 011.326 1.326l-2.282 2.282a.935.935 0 01-.663.275zM7.631 8.569a.931.931 0 01-.663-.275L4.686 6.012a.938.938 0 011.326-1.326l2.282 2.282a.938.938 0 01-.663 1.601z"/><path fill="var(--color6, #ff8856)" d="M20.541 6.009a.938.938 0 01-.865-1.298l1.239-2.981a.938.938 0 011.732.72l-1.239 2.981a.94.94 0 01-.866.578zM29.909 22.718a.936.936 0 01-.36-.072l-2.98-1.239a.938.938 0 11.72-1.732l2.981 1.239a.937.937 0 01-.36 1.803z"/><path fill="var(--color5, #fdbf00)" d="M10.219 30.847a.936.936 0 01-.866-1.297l1.239-2.981a.938.938 0 111.732.72l-1.239 2.98a.94.94 0 01-.866.578zM5.071 12.396a.928.928 0 01-.359-.072l-2.981-1.239a.938.938 0 11.72-1.732l2.981 1.239a.938.938 0 01-.36 1.804z"/><path fill="var(--color6, #ff8856)" d="M26.94 12.421a.939.939 0 01-.358-1.804l2.983-1.232a.937.937 0 01.715 1.733l-2.983 1.232a.94.94 0 01-.357.071zM21.748 30.861a.937.937 0 01-.867-.58l-1.232-2.983a.936.936 0 111.733-.715l1.232 2.983a.936.936 0 01-.866 1.295z"/><path fill="var(--color5, #fdbf00)" d="M2.078 22.685a.937.937 0 01-.358-1.804l2.983-1.232a.936.936 0 11.715 1.733l-2.983 1.232a.94.94 0 01-.357.071zM11.484 5.999a.937.937 0 01-.867-.58L9.385 2.436a.936.936 0 111.733-.715l1.232 2.983a.936.936 0 01-.866 1.295z"/><path fill="var(--color6, #ff8856)" d="M16 0v5.103c.518 0 .938-.42.938-.938V.937A.938.938 0 0016-.001zM16 7.313v17.375c4.79 0 8.688-3.897 8.688-8.688S20.791 7.312 16 7.312zM16 26.897V32c.518 0 .938-.42.938-.938v-3.228a.938.938 0 00-.938-.938z"/></symbol><symbol id="icon-wind" viewBox="0 0 32 32"><path fill="var(--color7, #fff)" opacity=".54" d="M25.316 2.643a6.712 6.712 0 00-4.185 1.472.937.937 0 101.174 1.462 4.827 4.827 0 013.011-1.059c2.652 0 4.809 2.157 4.809 4.809s-2.157 4.809-4.809 4.809H7.688a.938.938 0 000 1.876h17.628c3.686 0 6.684-2.999 6.684-6.684s-2.999-6.684-6.684-6.684z"/><path fill="var(--color7, #fff)" opacity=".54" d="M5.891 12.268h10.015a.938.938 0 000-1.876H5.891a.938.938 0 000 1.876zM15.643 17.893H.937a.938.938 0 000 1.875h14.706c2.126 0 3.857 1.73 3.857 3.857s-1.73 3.857-3.857 3.857a3.872 3.872 0 01-2.414-.849.937.937 0 10-1.174 1.462 5.75 5.75 0 003.588 1.262c3.16 0 5.732-2.571 5.732-5.732s-2.571-5.732-5.732-5.732zM.938 12.268h1.265a.938.938 0 000-1.876H.938a.938.938 0 000 1.876z"/><path fill="var(--color7, #fff)" opacity=".54" d="M12.25 22.563a.938.938 0 00-.938-.938H5.687a.938.938 0 000 1.875h5.625c.518 0 .938-.42.938-.937z"/></symbol><symbol id="icon-humidity" viewBox="0 0 32 32"><path fill="var(--color7, #fff)" opacity=".54" d="M28.62 9.399a27.288 27.288 0 00-1.796-2.718c-.828-1.079-1.317-1.461-1.868-1.461-.523 0-.948.366-1.426.916-.352.405-.771.966-1.212 1.624a31.784 31.784 0 00-1.759 2.965 62.943 62.943 0 00-1.461-2.643c-1.203-2.059-2.486-4.001-3.612-5.47C13.638.203 12.944.002 12.438.002s-1.201.202-3.049 2.611c-1.127 1.469-2.41 3.411-3.612 5.47C4.331 10.557.969 16.722.969 20.534c0 6.324 5.145 11.469 11.469 11.469 5.934 0 10.829-4.529 11.411-10.312a6.082 6.082 0 007.183-5.973c0-1.906-1.511-4.776-2.411-6.316zM12.438 30.125c-5.29 0-9.594-4.304-9.594-9.594 0-2.233 1.6-6.358 4.279-11.034 2.392-4.173 4.524-6.857 5.315-7.519.791.662 2.923 3.345 5.315 7.519 2.679 4.676 4.279 8.801 4.279 11.034 0 5.29-4.304 9.594-9.594 9.594zm12.518-10.21a4.24 4.24 0 01-1.09-.143c-.207-2.066-1.186-4.634-2.256-6.925 1.043-2.328 2.589-4.622 3.345-5.498.477.55 1.322 1.709 2.262 3.37 1.214 2.147 1.939 4.014 1.939 4.995 0 2.316-1.884 4.2-4.2 4.2z"/><path fill="var(--color7, #fff)" opacity=".54" d="M15.011 16.073a.938.938 0 00-1.281.343l-4.21 7.293a.938.938 0 001.624.938l4.21-7.293a.938.938 0 00-.343-1.281zM10.094 17.937a.94.94 0 00-1.876 0c0 .516.421.938.938.938s.938-.421.938-.938zM15.406 22.312c-.516 0-.938.421-.938.937s.421.938.938.938a.938.938 0 00-.001-1.875z"/></symbol><symbol id="icon-barometer" viewBox="0 0 32 32"><path fill="var(--color7, #fff)" opacity=".54" d="M18.489 4.12c.206-.391.324-.836.324-1.308 0-1.551-1.262-2.813-2.813-2.813s-2.813 1.262-2.813 2.813c0 .472.117.917.324 1.308C6.947 5.298 1.95 11.051 1.95 17.949c0 7.747 6.303 14.05 14.05 14.05s14.05-6.303 14.05-14.05c0-6.898-4.997-12.651-11.561-13.829zM16 1.875a.938.938 0 11-.003 1.877A.938.938 0 0116 1.875zm0 28.25c-6.713 0-12.175-5.462-12.175-12.175S9.287 5.775 16 5.775c6.713 0 12.175 5.462 12.175 12.175S22.713 30.125 16 30.125z"/><path fill="var(--color7, #fff)" opacity=".54" d="M23.332 10.69l-.04-.044c-.014-.014-.031-.028-.047-.042A10.293 10.293 0 0016 7.626a10.29 10.29 0 00-7.267 2.998l-.025.022-.019.021a10.292 10.292 0 00-3.014 7.284c0 .518.42.937.938.937h1.063a.938.938 0 100-1.875h-.073a8.415 8.415 0 011.805-4.342l.052.052a.935.935 0 001.326 0 .938.938 0 000-1.326l-.05-.05a8.407 8.407 0 014.328-1.794v.073a.938.938 0 101.875 0v-.073a8.405 8.405 0 014.327 1.795l-.05.05a.938.938 0 001.326 1.326l.051-.051a8.408 8.408 0 011.804 4.329h-.084a.937.937 0 100 1.875h1.076a.937.937 0 00.936-.939 10.29 10.29 0 00-2.993-7.246z"/><path fill="var(--color7, #fff)" opacity=".54" d="M20.251 13.698a.938.938 0 00-1.326 0l-3.915 3.915a2.8 2.8 0 00-1.407-.268.937.937 0 10.131 1.87.936.936 0 011.001.989.937.937 0 001.872.109 2.802 2.802 0 00-.271-1.374l3.915-3.915a.938.938 0 000-1.326zM21.375 24.688h-10.75a.938.938 0 100 1.875h10.75a.937.937 0 000-1.875z"/></symbol><symbol id="icon-weather" viewBox="0 0 32 32"><path fill="var(--color5, #fdbf00)" d="M16 25.375c-5.169 0-9.375-4.206-9.375-9.375S10.831 6.625 16 6.625c.518 0 .938.42.938.938v16.875c0 .518-.42.938-.938.938z"/><path fill="var(--color8, #7dd5f4)" d="M31.063 15.063h-1.457l.714-1.237a.938.938 0 00-1.624-.938l-1.256 2.175h-9.177l6.489-6.489 2.425.65a.937.937 0 00.485-1.811l-1.38-.37.942-.942a.938.938 0 00-1.326-1.326l-.942.942-.37-1.38a.938.938 0 00-1.811.485l.65 2.425-6.489 6.489V4.559l2.175-1.256a.938.938 0 00-.938-1.624l-1.237.714V.936a.938.938 0 00-1.876 0v30.125a.937.937 0 101.876-.001v-1.457l1.237.714a.938.938 0 10.938-1.624l-2.175-1.256V18.26l6.489 6.489-.65 2.425a.938.938 0 001.811.485l.37-1.38.942.942a.935.935 0 001.326 0 .938.938 0 000-1.326l-.942-.942 1.38-.37a.938.938 0 00-.485-1.811l-2.425.65-6.489-6.489h9.177l1.256 2.175a.938.938 0 101.624-.938l-.714-1.237h1.457a.938.938 0 100-1.875z"/><path fill="var(--color5, #fdbf00)" d="M3.941 16.938H.938a.938.938 0 010-1.876h3.003a.938.938 0 010 1.876zM7.473 8.41a.931.931 0 01-.663-.275L4.686 6.011a.938.938 0 011.326-1.326l2.124 2.124a.938.938 0 01-.663 1.601zM5.349 27.588a.938.938 0 01-.663-1.601l2.124-2.124a.938.938 0 011.326 1.326l-2.124 2.124a.935.935 0 01-.663.275zM11.481 5.758a.936.936 0 01-.869-.586L9.486 2.388a.937.937 0 111.739-.702l1.126 2.784a.937.937 0 01-.869 1.289zM2.036 22.583a.936.936 0 01-.351-1.806l2.784-1.126a.937.937 0 11.702 1.738l-2.784 1.126a.926.926 0 01-.351.069zM10.288 30.875a.938.938 0 01-.867-1.293l1.139-2.779a.938.938 0 011.735.711l-1.139 2.779a.938.938 0 01-.868.582zM4.841 12.365a.947.947 0 01-.355-.07l-2.779-1.139a.938.938 0 01.711-1.735l2.779 1.139a.938.938 0 01-.356 1.805z"/><path fill="var(--color9, #4793ff)" d="M31.063 15.063h-1.457l.714-1.237a.938.938 0 00-1.624-.938l-1.256 2.175h-9.177l6.489-6.489 2.425.65a.937.937 0 00.485-1.811l-1.38-.37.942-.942a.938.938 0 00-1.326-1.326l-.942.942-.37-1.38a.938.938 0 00-1.811.485l.65 2.425-6.489 6.489V4.559l2.175-1.256a.938.938 0 00-.938-1.624l-1.237.714V.936a.938.938 0 00-.938-.938v32c.518 0 .938-.42.938-.938v-1.457l1.237.714a.938.938 0 10.938-1.624l-2.175-1.256V18.26l6.489 6.489-.65 2.425a.938.938 0 001.811.485l.37-1.38.942.942a.935.935 0 001.326 0 .938.938 0 000-1.326l-.942-.942 1.38-.37a.938.938 0 00-.485-1.811l-2.425.65-6.489-6.489h9.177l1.256 2.175a.938.938 0 101.624-.938l-.714-1.237h1.457a.938.938 0 100-1.875z"/></symbol><symbol id="icon-sunrise" viewBox="0 0 32 32"><path d="M16 5.103c.518 0 .938-.42.938-.938V.937a.938.938 0 00-1.876 0v3.228c0 .518.42.938.938.938zM31.063 15.063h-3.228a.938.938 0 000 1.876h3.228a.938.938 0 000-1.876zM5.103 16a.938.938 0 00-.938-.938H.937a.938.938 0 000 1.876h3.228c.518 0 .938-.42.938-.938zM24.368 8.569c.24 0 .48-.092.663-.275l2.282-2.282a.938.938 0 00-1.326-1.326l-2.282 2.282a.938.938 0 00.663 1.601zM25.031 23.705a.938.938 0 00-1.326 1.326l2.282 2.282a.935.935 0 001.326 0 .938.938 0 000-1.326l-2.282-2.282zM6.969 23.705l-2.282 2.282a.938.938 0 001.326 1.326l2.282-2.282a.938.938 0 00-1.326-1.326zM6.969 8.294a.935.935 0 001.326 0 .938.938 0 000-1.326L6.013 4.686a.938.938 0 00-1.326 1.326l2.282 2.282zM20.182 5.937a.938.938 0 001.225-.506l1.239-2.981a.938.938 0 00-1.731-.72l-1.239 2.981a.937.937 0 00.506 1.225zM30.269 20.915l-2.981-1.239a.938.938 0 00-.72 1.732l2.98 1.239a.936.936 0 001.226-.506.938.938 0 00-.506-1.226zM11.818 26.063a.938.938 0 00-1.226.506l-1.239 2.98a.938.938 0 001.731.72l1.239-2.981a.937.937 0 00-.506-1.225zM1.731 11.085l2.981 1.239a.938.938 0 00.719-1.732L2.45 9.353a.938.938 0 00-.72 1.732zM26.073 11.841a.937.937 0 001.224.509l2.983-1.232a.938.938 0 00-.715-1.733l-2.983 1.232a.938.938 0 00-.509 1.224zM21.383 26.582a.938.938 0 00-1.733.715l1.232 2.983a.937.937 0 101.733-.715l-1.232-2.983zM5.927 20.159a.938.938 0 00-1.224-.509L1.72 20.882a.938.938 0 00.715 1.733l2.983-1.232a.938.938 0 00.509-1.224zM10.617 5.419a.937.937 0 101.733-.715l-1.232-2.983a.938.938 0 00-1.733.715l1.232 2.983z"/><path d="M16.938 24.637c4.351-.469 7.75-4.163 7.75-8.637 0-4.79-3.897-8.688-8.688-8.688S7.312 11.209 7.312 16c0 4.474 3.399 8.168 7.75 8.637v6.426a.938.938 0 001.876 0v-6.426zM9.187 16c0-3.756 3.056-6.813 6.813-6.813s6.813 3.056 6.813 6.813c0 3.438-2.561 6.289-5.875 6.748V19.17l.212.212a.938.938 0 001.326-1.326l-1.817-1.817a.937.937 0 00-1.316-.009l-1.875 1.822a.938.938 0 001.307 1.345l.289-.281v3.633c-3.314-.458-5.875-3.309-5.875-6.748z"/></symbol><symbol id="icon-sunset" viewBox="0 0 32 32"><path d="M16 5.103c.518 0 .938-.42.938-.938V.937a.938.938 0 00-1.876 0v3.228c0 .518.42.938.938.938zM31.063 15.063h-3.228a.938.938 0 000 1.876h3.228a.938.938 0 000-1.876zM5.103 16a.938.938 0 00-.938-.938H.937a.938.938 0 000 1.876h3.228c.518 0 .938-.42.938-.938zM24.368 8.569c.24 0 .48-.092.663-.275l2.282-2.282a.938.938 0 00-1.326-1.326l-2.282 2.282a.938.938 0 00.663 1.601zM25.031 23.705a.938.938 0 00-1.326 1.326l2.282 2.282a.935.935 0 001.326 0 .938.938 0 000-1.326l-2.282-2.282zM6.969 23.705l-2.282 2.282a.938.938 0 001.326 1.326l2.282-2.282a.938.938 0 00-1.326-1.326zM6.969 8.294a.935.935 0 001.326 0 .938.938 0 000-1.326L6.013 4.686a.938.938 0 00-1.326 1.326l2.282 2.282zM20.182 5.937a.938.938 0 001.225-.506l1.239-2.981a.938.938 0 00-1.731-.72l-1.239 2.981a.937.937 0 00.506 1.225zM30.269 20.915l-2.98-1.239a.938.938 0 00-.72 1.732l2.98 1.239a.935.935 0 001.225-.506.938.938 0 00-.506-1.226zM11.818 26.063a.938.938 0 00-1.226.506l-1.239 2.98a.938.938 0 001.732.72l1.239-2.98a.938.938 0 00-.506-1.226zM1.731 11.085l2.981 1.239a.938.938 0 00.719-1.732L2.45 9.353a.938.938 0 00-.72 1.732zM26.073 11.841a.937.937 0 001.224.509l2.983-1.232a.938.938 0 00-.715-1.733l-2.983 1.232a.938.938 0 00-.509 1.224zM21.383 26.582a.938.938 0 00-1.733.715l1.232 2.983a.939.939 0 001.224.509.938.938 0 00.509-1.224l-1.232-2.983zM5.927 20.158a.938.938 0 00-1.224-.509L1.72 20.881a.938.938 0 00.715 1.733l2.983-1.232a.938.938 0 00.509-1.224zM10.617 5.419a.937.937 0 101.733-.715l-1.232-2.983a.938.938 0 00-1.733.715l1.232 2.983z"/><path d="M17.15 28.582l-.212.212v-4.158c4.351-.469 7.75-4.163 7.75-8.637 0-4.79-3.897-8.688-8.688-8.688s-8.688 3.897-8.688 8.688c0 4.474 3.399 8.168 7.75 8.637v4.213l-.289-.281a.938.938 0 00-1.307 1.345l1.875 1.822a.934.934 0 001.316-.01l1.817-1.817a.938.938 0 00-1.326-1.326zM9.187 16c0-3.756 3.056-6.813 6.813-6.813s6.813 3.056 6.813 6.813c0 3.438-2.561 6.289-5.875 6.748v-2.225a.938.938 0 00-1.876 0v2.225C11.748 22.29 9.187 19.439 9.187 16z"/></symbol><symbol id="icon-clouds-and-sun" viewBox="0 0 33 32"><path fill="var(--color5, #fdbf00)" d="M19.062 17.671a5.866 5.866 0 01-5.858-5.806 5.866 5.866 0 015.805-5.913h.055a5.866 5.866 0 015.858 5.806 5.866 5.866 0 01-5.805 5.913h-.055z"/><path fill="var(--color6, #ff8856)" d="M19.064 5.952h-.001v11.719h.054a5.865 5.865 0 005.805-5.913 5.866 5.866 0 00-5.858-5.806z"/><path fill="var(--color5, #fdbf00)" d="M19.086 4.838a.781.781 0 01-.781-.774l-.019-2.115a.781.781 0 01.774-.788h.007c.428 0 .777.345.781.774l.019 2.115a.781.781 0 01-.774.788h-.007z"/><path fill="var(--color6, #ff8856)" d="M26.818 12.522a.781.781 0 01-.007-1.562l2.122-.019a.781.781 0 01.007 1.562l-2.115.019h-.007zM24.59 7.059a.782.782 0 01-.557-1.329l1.482-1.509a.782.782 0 011.115 1.095l-1.482 1.509a.778.778 0 01-.558.234z"/><path fill="var(--color5, #fdbf00)" d="M13.624 7.16a.776.776 0 01-.547-.224l-1.509-1.482a.782.782 0 011.095-1.115l1.509 1.482a.782.782 0 01-.548 1.339z"/><path fill="var(--color6, #ff8856)" d="M22.067 5.405a.78.78 0 01-.724-1.074l.794-1.96a.781.781 0 011.448.586l-.794 1.96a.781.781 0 01-.724.488zM28.306 16.297a.775.775 0 01-.293-.057l-1.96-.794a.78.78 0 11.586-1.448l1.96.794a.78.78 0 01-.293 1.505z"/><path fill="var(--color5, #fdbf00)" d="M11.969 9.683a.775.775 0 01-.293-.057l-1.96-.794a.78.78 0 11.586-1.448l1.96.794a.78.78 0 01-.293 1.505z"/><path fill="var(--color6, #ff8856)" d="M26.298 9.568a.782.782 0 01-.305-1.501l1.947-.825a.781.781 0 11.609 1.439l-1.947.825a.78.78 0 01-.304.062z"/><path fill="var(--color5, #fdbf00)" d="M16.133 5.453a.782.782 0 01-.72-.477l-.825-1.947a.781.781 0 111.439-.609l.825 1.947a.781.781 0 01-.719 1.086z"/><path fill="var(--color3, #fff4f4)" d="M14.662 25.506c-.925 0-1.831-.32-2.55-.9a4.08 4.08 0 01-.951-1.103 3.396 3.396 0 01-1.799.519 3.4 3.4 0 01-3.247-2.421 3.392 3.392 0 01-3.067-3.373 3.393 3.393 0 013.076-3.374 3.378 3.378 0 01.936-1.485 3.377 3.377 0 014.088-.391 4.07 4.07 0 013.515-2.027 4.07 4.07 0 013.515 2.027 3.394 3.394 0 011.786-.511c.857 0 1.674.32 2.302.902.442.409.762.921.936 1.485a3.392 3.392 0 013.076 3.374 3.387 3.387 0 01-3.067 3.373 3.402 3.402 0 01-3.247 2.421 3.394 3.394 0 01-1.799-.519 4.07 4.07 0 01-3.501 2.003z"/><path fill="var(--color4, #f6efea)" d="M25.131 15.689a3.395 3.395 0 00-1.93-.834 3.378 3.378 0 00-.936-1.485 3.377 3.377 0 00-4.088-.391 4.07 4.07 0 00-3.515-2.027v14.554c.925 0 1.831-.32 2.55-.9a4.08 4.08 0 00.951-1.103 3.396 3.396 0 001.799.519 3.4 3.4 0 003.247-2.421 3.392 3.392 0 003.067-3.373c0-.971-.418-1.897-1.146-2.54z"/><path fill="var(--color6, #ff8856)" d="M19.848 1.935a.781.781 0 00-.781-.774h-.004v3.676l.023.001h.007a.781.781 0 00.774-.788l-.02-2.115z"/></symbol><symbol id="icon-arrow-down" viewBox="0 0 32 32"><path fill="var(--color7, #fff)" opacity=".2" d="M16 32C7.163 32 0 24.837 0 16S7.163 0 16 0s16 7.163 16 16-7.163 16-16 16z"/><path fill="none" stroke="var(--color7, #fff)" stroke-width="1.714" d="M20.571 13.714L16 18.285l-4.571-4.571"/></symbol><symbol id="icon-arrow-left" viewBox="0 0 32 32"><path fill="var(--color7, #fff)" opacity=".2" d="M32 16c0 8.837-7.163 16-16 16S0 24.837 0 16 7.163 0 16 0s16 7.163 16 16z"/><path fill="none" stroke="var(--color10, #000)" stroke-width="1.714" d="M13.714 12.571l4.571 4.571-4.571 4.571"/></symbol><symbol id="icon-arrow-up" viewBox="0 0 32 32"><path fill="var(--color7, #fff)" opacity=".2" d="M16 0c8.837 0 16 7.163 16 16s-7.163 16-16 16S0 24.837 0 16 7.163 0 16 0z"/><path fill="none" stroke="var(--color7, #fff)" stroke-width="1.714" d="M11.429 18.286L16 13.715l4.571 4.571"/></symbol><symbol id="icon-Barometer" viewBox="0 0 28 32"><path d="M16.66 4.12c.206-.391.324-.836.324-1.308 0-1.551-1.262-2.813-2.813-2.813s-2.813 1.262-2.813 2.813c0 .472.117.917.324 1.308C5.118 5.298.121 11.051.121 17.949c0 7.747 6.303 14.05 14.05 14.05s14.05-6.303 14.05-14.05c0-6.898-4.997-12.651-11.561-13.829zm-2.489-2.245c.517 0 .938.421.938.938s-.421.938-.938.938c-.517 0-.938-.421-.938-.938s.421-.938.938-.938zm0 28.25c-6.713 0-12.175-5.462-12.175-12.175S7.458 5.775 14.171 5.775c6.713 0 12.175 5.462 12.175 12.175s-5.462 12.175-12.175 12.175z"/><path d="M21.503 10.69l-.04-.044a.638.638 0 00-.047-.042 10.293 10.293 0 00-7.245-2.978 10.29 10.29 0 00-7.267 2.998l-.025.022-.019.02a10.292 10.292 0 00-3.014 7.284c0 .518.42.938.938.938h1.063a.938.938 0 000-1.876h-.073a8.415 8.415 0 011.805-4.342l.052.052a.935.935 0 001.326 0 .938.938 0 000-1.326l-.05-.051a8.407 8.407 0 014.328-1.794v.073a.938.938 0 001.876 0v-.073a8.405 8.405 0 014.327 1.795l-.05.05a.938.938 0 001.326 1.326l.051-.051A8.408 8.408 0 0122.569 17h-.084a.938.938 0 100 1.875h1.076a.937.937 0 00.936-.939 10.29 10.29 0 00-2.993-7.246z"/><path d="M18.423 13.698a.938.938 0 00-1.326 0l-3.915 3.915a2.8 2.8 0 00-1.407-.268.938.938 0 10.131 1.87.936.936 0 011.001.989.937.937 0 001.872.109 2.813 2.813 0 00-.271-1.374l3.915-3.915a.938.938 0 000-1.326zM19.546 24.688H8.796a.938.938 0 100 1.875h10.75a.938.938 0 000-1.875z"/></symbol><symbol id="icon-Ellipse-7" viewBox="0 0 32 32"><path fill="var(--color7, #fff)" opacity=".2" d="M32 16c0 8.837-7.163 16-16 16S0 24.837 0 16 7.163 0 16 0s16 7.163 16 16z"/></symbol><symbol id="icon-Group" viewBox="0 0 32 32"><path fill="var(--color5, #fdbf00)" d="M16 25.375c-5.169 0-9.375-4.206-9.375-9.375S10.831 6.625 16 6.625c.518 0 .938.42.938.938v16.875c0 .518-.42.938-.938.938z"/><path fill="var(--color8, #7dd5f4)" d="M31.063 15.063h-1.457l.714-1.237a.938.938 0 00-1.624-.938l-1.256 2.175h-9.177l6.489-6.489 2.425.65a.937.937 0 00.485-1.811l-1.38-.37.942-.942a.938.938 0 00-1.326-1.326l-.942.942-.37-1.38a.938.938 0 00-1.811.485l.65 2.425-6.489 6.489V4.559l2.175-1.256a.938.938 0 00-.938-1.624l-1.237.714V.936a.938.938 0 00-1.876 0v30.125a.938.938 0 001.876 0v-1.457l1.237.714a.938.938 0 10.938-1.624l-2.175-1.256v-9.177l6.489 6.489-.65 2.426a.938.938 0 001.811.485l.37-1.38.942.942a.935.935 0 001.326 0 .938.938 0 000-1.326l-.942-.942 1.38-.37a.938.938 0 00-.485-1.811l-2.425.65-6.489-6.489h9.177l1.256 2.175a.938.938 0 101.624-.938l-.714-1.237h1.457a.938.938 0 000-1.876z"/><path fill="var(--color5, #fdbf00)" d="M3.941 16.937H.938a.938.938 0 010-1.876h3.003a.938.938 0 010 1.876zM7.473 8.41a.931.931 0 01-.663-.275L4.686 6.011a.938.938 0 011.326-1.326l2.124 2.124a.938.938 0 01-.663 1.601zM5.349 27.588a.938.938 0 01-.663-1.601l2.124-2.124a.938.938 0 011.326 1.326l-2.124 2.124a.935.935 0 01-.663.275zM11.481 5.758a.936.936 0 01-.869-.586L9.486 2.388a.937.937 0 111.739-.702l1.126 2.784a.937.937 0 01-.869 1.289zM2.036 22.583a.937.937 0 01-.351-1.806l2.784-1.126a.937.937 0 11.702 1.738l-2.784 1.126a.926.926 0 01-.351.069zM10.288 30.875a.938.938 0 01-.867-1.293l1.139-2.779a.938.938 0 011.735.711l-1.139 2.779a.938.938 0 01-.868.582zM4.841 12.365a.947.947 0 01-.355-.07l-2.779-1.139a.938.938 0 01.711-1.735l2.779 1.139a.938.938 0 01-.356 1.805z"/><path fill="var(--color9, #4793ff)" d="M31.063 15.063h-1.457l.714-1.237a.938.938 0 00-1.624-.938l-1.256 2.175h-9.177l6.489-6.489 2.425.65a.937.937 0 00.485-1.811l-1.38-.37.942-.942a.938.938 0 00-1.326-1.326l-.942.942-.37-1.38a.938.938 0 00-1.811.485l.65 2.425-6.489 6.489V4.559l2.175-1.256a.938.938 0 00-.938-1.624l-1.237.714V.936a.938.938 0 00-.938-.938v32c.518 0 .938-.42.938-.938v-1.457l1.237.714a.938.938 0 10.938-1.624l-2.175-1.256V18.26l6.489 6.489-.65 2.426a.938.938 0 001.811.485l.37-1.38.942.942a.935.935 0 001.326 0 .938.938 0 000-1.326l-.942-.942 1.38-.37a.938.938 0 00-.485-1.811l-2.425.65-6.489-6.489h9.177l1.256 2.175a.938.938 0 101.624-.938l-.714-1.237h1.457a.938.938 0 000-1.876z"/></symbol><symbol id="icon-Humidity" viewBox="0 0 30 32"><path d="M27.706 9.399c-.597-1.021-1.234-1.986-1.796-2.718-.828-1.079-1.317-1.461-1.868-1.461-.523 0-.948.366-1.426.916-.352.405-.771.966-1.212 1.624a31.567 31.567 0 00-1.759 2.965 62.943 62.943 0 00-1.461-2.643c-1.203-2.059-2.486-4.001-3.613-5.47C12.723.203 12.029.002 11.522.002s-1.201.202-3.049 2.611c-1.127 1.469-2.41 3.411-3.612 5.47C3.415 10.557.053 16.722.053 20.534c0 6.324 5.145 11.469 11.469 11.469 5.934 0 10.829-4.529 11.411-10.312a6.082 6.082 0 007.183-5.973c0-1.906-1.511-4.776-2.411-6.317zM11.523 30.125c-5.29 0-9.594-4.304-9.594-9.594 0-2.233 1.6-6.358 4.279-11.034C8.6 5.324 10.732 2.64 11.523 1.978c.791.662 2.923 3.345 5.315 7.519 2.679 4.676 4.279 8.8 4.279 11.034 0 5.29-4.304 9.594-9.594 9.594zm12.519-10.21a4.24 4.24 0 01-1.09-.143c-.207-2.066-1.185-4.634-2.256-6.925 1.043-2.328 2.589-4.622 3.345-5.498.477.55 1.322 1.709 2.262 3.37 1.214 2.147 1.939 4.014 1.939 4.995 0 2.316-1.884 4.2-4.2 4.2z"/><path d="M14.097 16.073a.938.938 0 00-1.281.343l-4.21 7.293a.938.938 0 001.624.938l4.21-7.293a.938.938 0 00-.343-1.281zM9.179 17.937c0-.516-.421-.938-.937-.938s-.938.421-.938.938a.938.938 0 001.875 0zM14.492 22.312c-.516 0-.938.421-.938.938s.421.938.938.938c.516 0 .938-.421.938-.938s-.421-.938-.938-.938z"/></symbol><symbol id="icon-icon-location" viewBox="0 0 32 32"><path stroke="var(--color11, #aeb3b9)" stroke-width="2.909" d="M27.636 16c0 6.427-5.21 11.636-11.636 11.636S4.364 22.426 4.364 16C4.364 9.573 9.574 4.364 16 4.364S27.636 9.574 27.636 16z"/><path fill="var(--color11, #aeb3b9)" d="M14.545 0h2.909v5.818h-2.909V0zM14.545 26.182h2.909V32h-2.909v-5.818zM5.818 14.545v2.909H0v-2.909h5.818zM32 14.545v2.909h-5.818v-2.909H32z"/></symbol><symbol id="icon-line-with-2colours" viewBox="0 0 4000 32"><path fill="none" stroke="var(--color7, #fff)" stroke-width="32" d="M0 16h4000"/><path fill="none" stroke="var(--color12, #ff6b09)" stroke-width="32" d="M0 16h1344"/></symbol><symbol id="icon-Star-1" viewBox="0 0 35 32"><path  stroke="var(--color13, #7e8691)" stroke-width="1.6" d="M17.6 2.589l3.37 10.372h10.906l-8.823 6.411.18.553 3.191 9.82-8.823-6.411-8.823 6.411 3.37-10.372-8.823-6.411h10.906l3.37-10.372z"/></symbol><symbol id="icon-Vector-1" viewBox="0 0 32 32"><path fill="none" stroke="var(--color7, #fff)" stroke-width="4" d="M2.667 2.667l26.667 26.667m-26.667-.001L29.334 2.666"/></symbol><symbol id="icon-Vector-2" viewBox="0 0 22 32"><path fill="none" opacity=".5" stroke="var(--color7, #fff)" stroke-width="4.8" d="M19.2 28.8L6.4 16 19.2 3.2"/></symbol><symbol id="icon-Vector-3" viewBox="0 0 22 32"><path fill="none" stroke="var(--color7, #fff)" stroke-width="4.8" d="M3.2 3.2L16 16 3.2 28.8"/></symbol><symbol id="icon-Vector" viewBox="0 0 48 32"><path fill="var(--color3, #fff4f4)" d="M23.311 30.445a8.225 8.225 0 01-5.15-1.817 8.25 8.25 0 01-1.88-2.159 6.867 6.867 0 01-3.573 1.009c-3.057 0-5.69-2.034-6.555-4.848A6.857 6.857 0 010 15.811c0-3.55 2.712-6.478 6.173-6.822A6.838 6.838 0 018.05 6.035a6.836 6.836 0 014.658-1.826c1.26 0 2.486.353 3.545.992a8.258 8.258 0 011.884-2.187 8.22 8.22 0 015.174-1.837 8.22 8.22 0 015.174 1.837 8.243 8.243 0 011.884 2.187 6.87 6.87 0 013.545-.992 6.83 6.83 0 014.658 1.826A6.858 6.858 0 0140.45 8.99a6.857 6.857 0 01.019 13.64c-.865 2.814-3.498 4.848-6.555 4.848a6.867 6.867 0 01-3.573-1.009 8.227 8.227 0 01-1.88 2.158 8.226 8.226 0 01-5.15 1.818z"/></symbol><symbol id="icon-wind1" viewBox="0 0 36 32"><path d="M28.582.92c-1.712 0-3.39.59-4.725 1.662a1.058 1.058 0 101.325 1.651 5.449 5.449 0 013.399-1.196c2.994 0 5.43 2.436 5.43 5.43s-2.436 5.43-5.43 5.43H8.678a1.058 1.058 0 100 2.116h19.903c4.161 0 7.547-3.386 7.547-7.547S32.742.919 28.581.919z"/><path d="M6.652 11.787h11.307a1.058 1.058 0 100-2.116H6.652a1.058 1.058 0 100 2.116zM17.662 18.138H1.059a1.058 1.058 0 100 2.116h16.603c2.401 0 4.354 1.953 4.354 4.354s-1.953 4.354-4.354 4.354a4.37 4.37 0 01-2.726-.959 1.058 1.058 0 10-1.325 1.651 6.493 6.493 0 004.051 1.425c3.568 0 6.471-2.903 6.471-6.471s-2.903-6.471-6.471-6.471zM1.058 11.787h1.428a1.058 1.058 0 100-2.116H1.058a1.058 1.058 0 100 2.116z"/><path d="M13.831 23.409c0-.585-.474-1.058-1.058-1.058H6.422a1.058 1.058 0 100 2.116h6.351c.585 0 1.058-.474 1.058-1.058z"/></symbol></defs></svg>